# xmcd
#
# Track frame offsets:
#	150
#	23703
#	47415
#	82767
#	104480
#	121677
#	151972
#	178072
#	195129
#	236304
#	263915
#	280818
#	308727
#
# Disc length: 4400 seconds
#
# Revision: 2
# Processed by: cddbd v1.5.2PL0 Copyright (c) Steve Scherf et al.
# Submitted via: audiograbber 1.83.01
#
DISCID=92112e0d
DTITLE=Bugs Henderson and The Shuffle Kings - Vienna Calling CD1
DYEAR=2009
DGENRE=Blues
TTITLE0=Bugs Henderson and The Shuffle Kings - Big legged woman
TTITLE1=Bugs Henderson and The Shuffle Kings - Straight to Hell
TTITLE2=Bugs Henderson and The Shuffle Kings - Texas blues  Jellyroll
TTITLE3=Bugs Henderson and The Shuffle Kings - Sunshine of your love
TTITLE4=Bugs Henderson and The Shuffle Kings - You ain't nothin' to Texas
TTITLE5=Bugs Henderson and The Shuffle Kings - Interview with the Vamp
TTITLE6=Bugs Henderson and The Shuffle Kings - Look what love can do
TTITLE7=Bugs Henderson and The Shuffle Kings - I want the MF
TTITLE8=Bugs Henderson and The Shuffle Kings - Rockabilly medley
TTITLE9=Bugs Henderson and The Shuffle Kings - Lawdy Miss Clawdy  Today I st
TTITLE10=Bugs Henderson and The Shuffle Kings - Fantasy girl
TTITLE11=Bugs Henderson and The Shuffle Kings - Shake, rattle and roll
TTITLE12=Bugs Henderson and The Shuffle Kings - Audio liner notes
EXTD=YEAR: 2009
EXTT0=
EXTT1=
EXTT2=
EXTT3=
EXTT4=
EXTT5=
EXTT6=
EXTT7=
EXTT8=
EXTT9=
EXTT10=
EXTT11=
EXTT12=
PLAYORDER=
